<?xml version="1.0" encoding="UTF-8" standalone="no"?>
<!-- Created with Inkscape (http://www.inkscape.org/) -->

<svg
   version="1.1"
   id="svg5004"
   width="230"
   height="188"
   viewBox="0 0 230 188"
   sodipodi:docname="the_hunt_logo_other.svg"
   inkscape:version="1.1.2 (0a00cf5339, 2022-02-04)"
   xmlns:inkscape="http://www.inkscape.org/namespaces/inkscape"
   xmlns:sodipodi="http://sodipodi.sourceforge.net/DTD/sodipodi-0.dtd"
   xmlns="http://www.w3.org/2000/svg"
   xmlns:svg="http://www.w3.org/2000/svg">
  <defs
     id="defs5008" />
  <sodipodi:namedview
     id="namedview5006"
     pagecolor="#000800"
     bordercolor="#666666"
     borderopacity="1.0"
     inkscape:pageshadow="2"
     inkscape:pageopacity="1"
     inkscape:pagecheckerboard="false"
     showgrid="false"
     showborder="true"
     borderlayer="true"
     inkscape:zoom="2.0042345"
     inkscape:cx="-99.539251"
     inkscape:cy="187.35333"
     inkscape:window-width="2560"
     inkscape:window-height="1376"
     inkscape:window-x="1080"
     inkscape:window-y="319"
     inkscape:window-maximized="1"
     inkscape:current-layer="g5010" />
  <g
     inkscape:groupmode="layer"
     inkscape:label="Image"
     id="g5010">
    <path
       style="fill:#ffffff;stroke-width:0.175522"
       d="m 99.357734,50.750075 c -0.453259,-0.31619 -0.516459,-0.96366 -0.131639,-1.34849 0.144809,-0.1448 0.263279,-0.37773 0.263279,-0.51761 0,-0.13988 0.11848,-0.35266 0.26329,-0.47284 0.1448,-0.12017 0.263276,-0.36214 0.263276,-0.5377 0,-0.17555 0.079,-0.368 0.17552,-0.42767 0.0965,-0.0597 0.17553,-0.29681 0.17553,-0.527 0,-0.27889 0.17568,-0.5223 0.52656,-0.729572 0.34394,-0.20317 0.52657,-0.45203 0.52657,-0.71752 0,-0.22356 0.11847,-0.45194 0.26328,-0.50751 0.14481,-0.0556 0.26328,-0.29252 0.26328,-0.52656 0,-0.23404 0.11848,-0.471 0.26328,-0.52657 0.14481,-0.0556 0.26329,-0.24088 0.26329,-0.4118 0,-0.17093 0.11848,-0.4091 0.26328,-0.52928 0.14481,-0.12018 0.26328,-0.35527 0.26328,-0.52243 0,-0.16715 0.19747,-0.51698 0.43881,-0.7774 0.24134,-0.26041 0.43881,-0.62986 0.43881,-0.82099 0,-0.19113 0.11847,-0.39297 0.26328,-0.44854 0.14481,-0.0556 0.26328,-0.23451 0.26328,-0.39765 0,-0.16314 0.23361,-0.49037 0.51914,-0.72719 0.28926,-0.23992 0.52242,-0.60787 0.52656,-0.831 0.004,-0.22024 0.12591,-0.4459 0.27072,-0.50147 0.1448,-0.0556 0.26328,-0.23901 0.26328,-0.40766 0,-0.16865 0.19746,-0.5197 0.43881,-0.78012 0.24134,-0.26041 0.4388,-0.60142 0.4388,-0.7578 0,-0.15638 0.34718,-0.61698 0.77151,-1.02356 0.42432,-0.40658 0.81998,-0.8867 0.87923,-1.06692 0.19275,-0.58632 1.58971,-1.99516 1.97833,-1.99516 0.20371,0 0.41585,-0.11848 0.47141,-0.26328 0.0556,-0.14481 0.29631,-0.26329 0.53499,-0.26329 0.23868,0 0.48277,-0.079 0.54243,-0.17552 0.0597,-0.0965 0.65206,-0.17552 1.31642,-0.17552 0.66436,0 1.25675,0.079 1.31641,0.17552 0.0597,0.0965 0.30376,0.17552 0.54244,0.17552 0.23867,0 0.47942,0.11848 0.53498,0.26329 0.0556,0.1448 0.21158,0.26328 0.34669,0.26328 0.13511,0 0.8085,0.5529 1.49644,1.22866 0.68793,0.67575 1.31316,1.22865 1.38941,1.22865 0.0763,0 0.22697,0.26765 0.33493,0.59477 0.10796,0.32713 0.46952,0.87611 0.80346,1.21996 0.33394,0.34385 0.60717,0.70535 0.60717,0.80335 0,0.098 0.23695,0.42057 0.52656,0.71684 0.28961,0.29627 0.52992,0.67417 0.534,0.83978 0.004,0.16561 0.24104,0.49487 0.52657,0.73168 0.28552,0.23682 0.51923,0.55276 0.51934,0.70209 1.2e-4,0.14933 0.19759,0.50101 0.43881,0.7815 0.24122,0.2805 0.43859,0.62182 0.43859,0.75851 0,0.13669 0.11848,0.367 0.26328,0.5118 0.14481,0.14481 0.26329,0.40226 0.26329,0.57213 0,0.16987 0.19959,0.41567 0.44354,0.54623 0.24395,0.13055 0.49124,0.42743 0.54955,0.65974 0.0583,0.2323 0.29312,0.62427 0.52183,0.87105 0.2287,0.24677 0.41582,0.54922 0.41582,0.67211 0,0.34441 0.56133,1.296922 1.09701,1.861512 0.26548,0.2798 0.48269,0.63013 0.48269,0.7785 0,0.14837 0.11848,0.38824 0.26328,0.53305 0.14481,0.14481 0.26329,0.36383 0.26329,0.48673 0,0.41715 -0.79088,1.15572 -1.23425,1.15262 -0.46701,-0.003 -1.22306,-0.67673 -1.22306,-1.08946 0,-0.13925 -0.23476,-0.48355 -0.52169,-0.76512 -0.28694,-0.28156 -0.52389,-0.601 -0.52657,-0.70985 -0.003,-0.10884 -0.12335,-0.29623 -0.26816,-0.41641 -0.14481,-0.12018 -0.26328,-0.39552 -0.26328,-0.61189 0,-0.216352 -0.1868,-0.581862 -0.41512,-0.812232 -0.22831,-0.23038 -0.46834,-0.58951 -0.5334,-0.79809 -0.0651,-0.20856 -0.31269,-0.50658 -0.55026,-0.66225 -0.23759,-0.15567 -0.43197,-0.42951 -0.43197,-0.60854 0,-0.17902 -0.11848,-0.42383 -0.26328,-0.54401 -0.1448,-0.12018 -0.26328,-0.33258 -0.26328,-0.47201 0,-0.13942 -0.19747,-0.51239 -0.43881,-0.8288 -0.24134,-0.31642 -0.4388,-0.65342 -0.4388,-0.74888 0,-0.0955 -0.23476,-0.40396 -0.52169,-0.68553 -0.28693,-0.28156 -0.52389,-0.637 -0.52657,-0.78985 -0.003,-0.15284 -0.23964,-0.50828 -0.52656,-0.78985 -0.28693,-0.28156 -0.52389,-0.57644 -0.52657,-0.65529 -0.007,-0.19644 -0.91667,-1.40355 -1.18861,-1.57671 -0.12125,-0.0772 -0.22044,-0.25448 -0.22044,-0.39397 0,-0.35753 -2.00899,-2.27563 -2.83371,-2.7055 -0.80802,-0.42116 -1.70075,-0.4624 -2.179,-0.10066 -0.1874,0.14173 -0.46394,0.26021 -0.61456,0.26328 -0.36079,0.007 -1.39361,1.02484 -1.39361,1.37291 0,0.1499 -0.35544,0.61311 -0.78986,1.02935 -0.43441,0.41625 -0.78985,0.90007 -0.78985,1.07516 0,0.1751 -0.23361,0.51211 -0.51913,0.74892 -0.28552,0.23682 -0.52248,0.56414 -0.52657,0.72738 -0.004,0.16324 -0.0864,0.34562 -0.18295,0.40529 -0.0965,0.0597 -0.17552,0.28523 -0.17552,0.50127 0,0.22113 -0.22689,0.58098 -0.51914,0.82337 -0.28552,0.23682 -0.52247,0.55913 -0.52656,0.71625 -0.004,0.15711 -0.12591,0.384 -0.27072,0.50417 -0.1448,0.12018 -0.26328,0.35077 -0.26328,0.51241 0,0.16165 -0.23361,0.48767 -0.51914,0.72448 -0.28552,0.23681 -0.52247,0.60363 -0.52656,0.81514 -0.004,0.21151 -0.0864,0.43338 -0.18296,0.49304 -0.0965,0.0597 -0.17552,0.26427 -0.17552,0.45468 0,0.1904 -0.11847,0.39165 -0.26328,0.44722 -0.14481,0.0556 -0.26328,0.29252 -0.26328,0.52657 0,0.23404 -0.11848,0.47099 -0.26329,0.52656 -0.1448,0.0556 -0.26328,0.29252 -0.26328,0.526572 0,0.23404 -0.11848,0.471 -0.26328,0.52656 -0.14481,0.0556 -0.26329,0.23451 -0.26329,0.39765 0,0.16315 -0.23361,0.49038 -0.51913,0.7272 -0.28552,0.23681 -0.52248,0.60362 -0.52657,0.81513 -0.004,0.21151 -0.0864,0.43338 -0.18295,0.49305 -0.0965,0.0597 -0.17552,0.29219 -0.17552,0.51674 0,0.81428 -1.27021,1.23389 -2.062386,0.6813 z"
       id="path5474"
       inkscape:export-filename="/home/adam/the_hunt/the_hunt_logo_other.png"
       inkscape:export-xdpi="96"
       inkscape:export-ydpi="96" />
    <path
       style="fill:#ffffff;stroke-width:0.175522"
       d="m 134.29387,50.297995 c -0.19861,-0.2172 -0.49933,-0.67137 -0.66827,-1.00925 -0.16894,-0.33788 -0.57682,-0.93026 -0.9064,-1.31641 -1.79543,-2.103592 -2.16242,-2.578682 -2.16242,-2.799412 0,-0.13345 -0.31594,-0.54201 -0.70209,-0.90792 -0.38615,-0.36591 -0.70208,-0.76949 -0.70208,-0.89684 0,-0.12735 -0.47391,-0.74096 -1.05314,-1.36358 -0.57922,-0.62262 -1.05313,-1.21038 -1.05313,-1.30613 0,-0.0957 -0.33569,-0.57039 -0.74597,-1.05475 -0.41028,-0.48436 -1.33835,-1.60779 -2.06238,-2.49651 -0.72403,-0.88872 -2.57028,-2.89728 -4.10279,-4.46348 -2.82529,-2.8874 -2.89638,-2.94105 -5.51312,-4.16097 -0.22055,-0.10282 -0.89192,-0.18552 -1.49194,-0.18377 -0.91623,0.002 -1.23459,0.0923 -1.98796,0.55947 -0.49336,0.30597 -0.98252,0.55631 -1.087,0.55631 -0.2998,0 -2.30776,1.93172 -2.60454,2.50565 -0.14744,0.28511 -0.56674,0.84503 -0.93177,1.24427 -0.36504,0.39924 -0.78525,0.96285 -0.93381,1.25246 -0.14856,0.28961 -0.47507,0.71805 -0.72559,0.95209 -0.25051,0.23403 -0.45548,0.52748 -0.45548,0.6521 0,0.12462 -0.2263,0.48603 -0.50288,0.80313 -0.27659,0.31711 -0.55836,0.75427 -0.62616,0.97148 -0.0678,0.21721 -0.18292,0.39492 -0.25583,0.39492 -0.0729,0 -0.42547,0.58476 -0.78348,1.29946 -0.358,0.71469 -0.76643,1.39532 -0.90763,1.5125 -0.14119,0.11718 -0.50617,0.65796 -0.81106,1.20174 -0.3049,0.54377 -0.694996,1.14666 -0.866906,1.33973 -0.1719,0.19307 -0.481479,0.74596 -0.687959,1.22865 -0.20647,0.48269 -0.48597,0.9998 -0.62109,1.14914 -0.13513,0.14933 -0.45235,0.660202 -0.70494,1.135252 -0.25259,0.47505 -0.68928,1.12572 -0.97042,1.44593 -0.28115,0.3202 -0.51118,0.69227 -0.51118,0.82683 0,0.34833 -0.4937,0.79627 -0.8776,0.79627 -1.13702,0 -1.13392,-1.80315 0.005,-3.07163 0.17339,-0.19307 0.52186,-0.742262 0.77436,-1.220422 0.25251,-0.47815 0.57229,-0.99444 0.71063,-1.1473 0.13834,-0.15287 0.4102,-0.63663 0.60412,-1.07503 0.19393,-0.4384 0.52023,-1.0102 0.72512,-1.27068 0.20488,-0.26047 0.56956,-0.84417 0.8104,-1.29712 0.24083,-0.45295 0.667909,-1.08553 0.949049,-1.40573 0.281146,-0.3202 0.511166,-0.65525 0.511166,-0.74455 0,-0.0893 0.31519,-0.65919 0.70042,-1.26643 0.38523,-0.60724 0.70117,-1.19055 0.70209,-1.29626 9.7e-4,-0.10571 0.16616,-0.34107 0.3672,-0.52301 0.20104,-0.18194 0.47346,-0.58911 0.60537,-0.90481 0.13191,-0.31571 0.31608,-0.57401 0.40926,-0.57401 0.0932,0 0.4004,-0.37539 0.68271,-0.8342 0.28231,-0.4588 0.82223,-1.20261 1.19983,-1.6529 0.3776,-0.45029 0.91422,-1.13496 1.19248,-1.5215 0.74102,-1.02934 2.54222,-2.4576 4.28494,-3.397732 1.3028,-0.702813 1.67743,-0.825652 2.54271,-0.833729 2.61245,-0.02441 5.06619,1.543018 9.34101,5.966881 1.64113,1.69835 3.3788,3.62656 3.86148,4.2849 0.48269,0.65835 1.2133,1.58346 1.62359,2.0558 0.41028,0.47235 0.74596,0.93433 0.74596,1.02662 0,0.0923 0.39121,0.59978 0.86935,1.12776 0.47814,0.52798 0.9887,1.19078 1.13458,1.47289 0.14589,0.28211 0.52479,0.73125 0.842,0.99809 0.31722,0.26685 0.67232,0.71222 0.78912,0.98972 0.21606,0.51328 0.85802,1.36794 2.00539,2.669822 0.73523,0.83424 1.73149,2.60081 1.73149,3.07027 0,0.41032 -0.54044,0.90086 -0.99248,0.90086 -0.19278,0 -0.513,-0.17771 -0.71161,-0.39493 z"
       id="path5668"
       inkscape:export-filename="/home/adam/the_hunt/the_hunt_logo_other.png"
       inkscape:export-xdpi="96"
       inkscape:export-ydpi="96" />
    <rect
       style="fill:#000000"
       id="rect6317"
       width="230.98276"
       height="189.40192"
       x="-0.88167822"
       y="0.99009126" />
  </g>
</svg>
